<svg width="43" height="52" viewBox="0 0 43 52" fill="none" xmlns="http://www.w3.org/2000/svg">
<path d="M22.381 51.1025C22.381 51.1025 24.4597 42.8815 15.1198 40.5124C15.1198 40.5124 10.0482 39.1748 10.131 36.6668C10.131 36.6668 10.0474 35.8865 10.9623 34.6046C10.9623 34.6046 11.7937 33.7129 11.4611 32.2638C11.4611 32.2638 11.1559 30.6855 12.1334 30.7275C12.1334 30.7275 11.2121 30.2849 11.7109 29.2817C11.7109 29.2817 12.3487 27.9441 12.5977 27.8043C12.5977 27.8043 6.04336 25.7422 7.1245 20.8094L8.8169 13.8944C9.12132 12.6497 9.93659 11.5787 11.082 11.0165C12.1334 10.5003 13.67 10.1554 15.8548 10.4842C15.8548 10.4842 21.2171 5.78803 30.8622 7.34857C30.8622 7.34857 40.6728 9.07631 42.7235 18.9977C42.7235 18.9977 41.9797 3.08456 24.8637 0.158151C24.8637 0.158151 9.4667 -2.29412 2.26097 12.1142C2.26097 12.1142 -4.63954 24.0702 5.66986 36.1934C5.66986 36.1934 9.06831 40.3403 14.0114 41.7393C18.6395 43.0495 22.2565 44.8887 22.381 51.1033V51.1025Z" fill="#705EE1"/>
<path d="M13.2773 27.1832C13.2773 27.1832 7.69971 24.9635 8.18245 22.5428C8.28928 22.0089 8.7423 21.6147 9.27163 21.5024C10.2981 21.2851 12.5022 21.1963 16.1175 22.8424C16.1456 22.8602 26.0534 28.3003 32.8953 29.4521C33.9588 29.6314 35.0656 29.5805 36.0496 29.1379C37.4841 28.4933 39.1476 26.9417 39.452 23.2326C39.452 23.2326 39.6319 30.6459 33.7981 30.6459C33.7981 30.6459 29.586 30.6459 21.8991 27.2365C21.6614 27.1307 21.4292 27.0152 21.1971 26.8964C19.9103 26.2373 15.295 23.8901 14.3432 23.651C13.3649 23.4054 12.5946 23.0993 11.5391 23.5589C11.1632 23.7229 10.8692 24.0815 10.8692 24.4934C10.8692 25.0831 11.3962 26.1065 13.2757 27.1832H13.2773Z" fill="#705EE1"/>
<path d="M37.8582 23.3416C37.7779 22.0339 37.3819 20.2206 35.8229 20.0703C33.267 19.824 32.8156 23.7067 32.8156 23.7067C32.8156 23.7067 32.2067 27.5152 34.6453 27.894C36.0646 28.1145 36.8952 27.0984 37.353 26.1517C37.7731 25.2818 37.9177 24.3069 37.859 23.3408L37.8582 23.3416ZM36.9345 25.2972C36.6614 25.8577 36.1658 26.4595 35.3192 26.3286C33.8646 26.1041 34.2284 23.8473 34.2284 23.8473C34.2284 23.8473 34.4967 21.5461 36.0221 21.6923C36.9514 21.7811 37.1875 22.8554 37.2357 23.63C37.2711 24.2027 37.1843 24.7802 36.9345 25.2955V25.2972Z" fill="#705EE1"/>
</svg>

